# xmcd
# Track frame offsets:
# 150
# 16727
# 35125
# 54070
# 76700
# 94145
# 108980
# 136347
# 162615
# 177810
# 206272
# 231952
# 238087
# 258730
# 278682
# 310165
# 328455
#
# Disc length: 4577 seconds
# Revision: 0
# Processed by: cddbd v1.5.2PL0 Copyright (c) Steve Scherf et al.
# Submitted via: VisiTrax 2.10.0.248 - For more info visit www.synapsa.com
#
DISCID=e411df11
DTITLE=Dixon, Floyd - Time Brings About A Change
DYEAR=2006
DGENRE=Blues
TTITLE0=Don't Lose Your Cool
TTITLE1=Do You Wanna Dance
TTITLE2=Henry's House Rocker
TTITLE3=Sweet Home Chicago
TTITLE4=Dust My Broom
TTITLE5=Down In Mississippi
TTITLE6=Come Back Baby
TTITLE7=Since I Lost My Baby
TTITLE8=Hole In The Wall
TTITLE9=Cold, Cold Feeling
TTITLE10=I'm Gonna Move To The Outskirts of Town
TTITLE11=Glory Of Love
TTITLE12=Caledonia
TTITLE13=Time Brings About A Change
TTITLE14=Call Operator 210
TTITLE15=Rita
TTITLE16=So Long
EXTD=
EXTT0=
EXTT1=
EXTT2=
EXTT3=
EXTT4=
EXTT5=
EXTT6=
EXTT7=
EXTT8=
EXTT9=
EXTT10=
EXTT11=
EXTT12=
EXTT13=
EXTT14=
EXTT15=
EXTT16=
PLAYORDER=
